<svg id="visual" viewBox="0 0 900 600" width="900" height="600" xmlns="http://www.w3.org/2000/svg" xmlns:xlink="http://www.w3.org/1999/xlink" version="1.1"><rect x="0" y="0" width="900" height="600" fill="#084770"></rect><defs><linearGradient id="grad1_0" x1="33.3%" y1="0%" x2="100%" y2="100%"><stop offset="20%" stop-color="#c6fa3c" stop-opacity="1"></stop><stop offset="80%" stop-color="#c6fa3c" stop-opacity="1"></stop></linearGradient></defs><defs><linearGradient id="grad1_1" x1="33.3%" y1="0%" x2="100%" y2="100%"><stop offset="20%" stop-color="#c6fa3c" stop-opacity="1"></stop><stop offset="80%" stop-color="#00ca8f" stop-opacity="1"></stop></linearGradient></defs><defs><linearGradient id="grad1_2" x1="33.3%" y1="0%" x2="100%" y2="100%"><stop offset="20%" stop-color="#0089a7" stop-opacity="1"></stop><stop offset="80%" stop-color="#00ca8f" stop-opacity="1"></stop></linearGradient></defs><defs><linearGradient id="grad1_3" x1="33.3%" y1="0%" x2="100%" y2="100%"><stop offset="20%" stop-color="#0089a7" stop-opacity="1"></stop><stop offset="80%" stop-color="#084770" stop-opacity="1"></stop></linearGradient></defs><defs><linearGradient id="grad2_0" x1="0%" y1="0%" x2="66.7%" y2="100%"><stop offset="20%" stop-color="#c6fa3c" stop-opacity="1"></stop><stop offset="80%" stop-color="#c6fa3c" stop-opacity="1"></stop></linearGradient></defs><defs><linearGradient id="grad2_1" x1="0%" y1="0%" x2="66.7%" y2="100%"><stop offset="20%" stop-color="#00ca8f" stop-opacity="1"></stop><stop offset="80%" stop-color="#c6fa3c" stop-opacity="1"></stop></linearGradient></defs><defs><linearGradient id="grad2_2" x1="0%" y1="0%" x2="66.7%" y2="100%"><stop offset="20%" stop-color="#00ca8f" stop-opacity="1"></stop><stop offset="80%" stop-color="#0089a7" stop-opacity="1"></stop></linearGradient></defs><defs><linearGradient id="grad2_3" x1="0%" y1="0%" x2="66.7%" y2="100%"><stop offset="20%" stop-color="#084770" stop-opacity="1"></stop><stop offset="80%" stop-color="#0089a7" stop-opacity="1"></stop></linearGradient></defs><g transform="translate(900, 0)"><path d="M0 486.7C-39.5 476.3 -79.1 465.8 -123.2 459.8C-167.3 453.8 -216 452.2 -243.4 421.5C-270.8 390.8 -276.9 331 -289.2 289.2C-301.5 247.4 -319.8 223.7 -343.8 198.5C-367.8 173.3 -397.4 146.4 -422.1 113.1C-446.9 79.8 -466.8 39.9 -486.7 0L0 0Z" fill="#006893"></path><path d="M0 365.1C-29.7 357.2 -59.3 349.3 -92.4 344.8C-125.5 340.3 -162 339.2 -182.5 316.2C-203.1 293.1 -207.7 248.2 -216.9 216.9C-226.1 185.6 -239.9 167.8 -257.9 148.9C-275.8 129.9 -298 109.8 -316.6 84.8C-335.1 59.8 -350.1 29.9 -365.1 0L0 0Z" fill="#00aaa5"></path><path d="M0 243.4C-19.8 238.1 -39.5 232.9 -61.6 229.9C-83.7 226.9 -108 226.1 -121.7 210.8C-135.4 195.4 -138.5 165.5 -144.6 144.6C-150.7 123.7 -159.9 111.9 -171.9 99.3C-183.9 86.6 -198.7 73.2 -211.1 56.6C-223.4 39.9 -233.4 19.9 -243.4 0L0 0Z" fill="#5ae56a"></path><path d="M0 121.7C-9.9 119.1 -19.8 116.4 -30.8 114.9C-41.8 113.4 -54 113.1 -60.8 105.4C-67.7 97.7 -69.2 82.7 -72.3 72.3C-75.4 61.9 -80 55.9 -86 49.6C-91.9 43.3 -99.3 36.6 -105.5 28.3C-111.7 19.9 -116.7 10 -121.7 0L0 0Z" fill="#c6fa3c"></path></g><g transform="translate(0, 600)"><path d="M0 -486.7C39.6 -469.1 79.2 -451.5 117.5 -438.5C155.9 -425.6 193 -417.3 234 -405.3C275 -393.3 319.9 -377.7 344.2 -344.2C368.4 -310.7 372 -259.3 376.7 -217.5C381.4 -175.7 387.2 -143.4 405.7 -108.7C424.2 -74 455.5 -37 486.7 0L0 0Z" fill="#006893"></path><path d="M0 -365.1C29.7 -351.8 59.4 -338.6 88.1 -328.9C116.9 -319.2 144.7 -313 175.5 -304C206.3 -295 239.9 -283.3 258.1 -258.1C276.3 -233 279 -194.5 282.5 -163.1C286.1 -131.8 290.4 -107.5 304.3 -81.5C318.2 -55.5 341.6 -27.8 365.1 0L0 0Z" fill="#00aaa5"></path><path d="M0 -243.4C19.8 -234.6 39.6 -225.7 58.8 -219.3C77.9 -212.8 96.5 -208.6 117 -202.6C137.5 -196.7 160 -188.8 172.1 -172.1C184.2 -155.3 186 -129.7 188.4 -108.8C190.7 -87.8 193.6 -71.7 202.8 -54.4C212.1 -37 227.7 -18.5 243.4 0L0 0Z" fill="#5ae56a"></path><path d="M0 -121.7C9.9 -117.3 19.8 -112.9 29.4 -109.6C39 -106.4 48.2 -104.3 58.5 -101.3C68.8 -98.3 80 -94.4 86 -86C92.1 -77.7 93 -64.8 94.2 -54.4C95.4 -43.9 96.8 -35.8 101.4 -27.2C106.1 -18.5 113.9 -9.3 121.7 0L0 0Z" fill="#c6fa3c"></path></g></svg>