<svg id="visual" viewBox="0 0 900 600" width="900" height="600" xmlns="http://www.w3.org/2000/svg" xmlns:xlink="http://www.w3.org/1999/xlink" version="1.1"><rect x="0" y="0" width="900" height="600" fill="#3d194b"></rect><defs><linearGradient id="grad1_0" x1="33.3%" y1="0%" x2="100%" y2="100%"><stop offset="20%" stop-color="#fa3c76" stop-opacity="1"></stop><stop offset="80%" stop-color="#fa3c76" stop-opacity="1"></stop></linearGradient></defs><defs><linearGradient id="grad1_1" x1="33.3%" y1="0%" x2="100%" y2="100%"><stop offset="20%" stop-color="#fa3c76" stop-opacity="1"></stop><stop offset="80%" stop-color="#992770" stop-opacity="1"></stop></linearGradient></defs><defs><linearGradient id="grad1_2" x1="33.3%" y1="0%" x2="100%" y2="100%"><stop offset="20%" stop-color="#3d194b" stop-opacity="1"></stop><stop offset="80%" stop-color="#992770" stop-opacity="1"></stop></linearGradient></defs><defs><linearGradient id="grad2_0" x1="0%" y1="0%" x2="66.7%" y2="100%"><stop offset="20%" stop-color="#fa3c76" stop-opacity="1"></stop><stop offset="80%" stop-color="#fa3c76" stop-opacity="1"></stop></linearGradient></defs><defs><linearGradient id="grad2_1" x1="0%" y1="0%" x2="66.7%" y2="100%"><stop offset="20%" stop-color="#992770" stop-opacity="1"></stop><stop offset="80%" stop-color="#fa3c76" stop-opacity="1"></stop></linearGradient></defs><defs><linearGradient id="grad2_2" x1="0%" y1="0%" x2="66.7%" y2="100%"><stop offset="20%" stop-color="#992770" stop-opacity="1"></stop><stop offset="80%" stop-color="#3d194b" stop-opacity="1"></stop></linearGradient></defs><g transform="translate(900, 0)"><path d="M0 486.7C-35.8 481.7 -71.5 476.7 -107 468.9C-142.5 461.2 -177.7 450.7 -209.1 434.3C-240.5 417.8 -268.1 395.4 -298.7 374.5C-329.2 353.6 -362.7 334.1 -380.6 303.5C-398.4 272.8 -400.6 230.9 -405.4 195.2C-410.3 159.6 -417.9 130.1 -431.9 98.6C-445.9 67.1 -466.3 33.5 -486.7 0L0 0Z" fill="#692161"></path><path d="M0 324.5C-23.8 321.1 -47.7 317.8 -71.4 312.6C-95 307.5 -118.5 300.5 -139.4 289.5C-160.4 278.5 -178.7 263.6 -199.1 249.7C-219.5 235.7 -241.8 222.8 -253.7 202.3C-265.6 181.9 -267 154 -270.3 130.2C-273.5 106.4 -278.6 86.7 -287.9 65.7C-297.3 44.7 -310.9 22.4 -324.5 0L0 0Z" fill="#ca2e77"></path><path d="M0 162.2C-11.9 160.6 -23.8 158.9 -35.7 156.3C-47.5 153.7 -59.2 150.2 -69.7 144.8C-80.2 139.3 -89.4 131.8 -99.6 124.8C-109.7 117.9 -120.9 111.4 -126.9 101.2C-132.8 90.9 -133.5 77 -135.1 65.1C-136.8 53.2 -139.3 43.4 -144 32.9C-148.6 22.4 -155.4 11.2 -162.2 0L0 0Z" fill="#fa3c76"></path></g><g transform="translate(0, 600)"><path d="M0 -486.7C34.1 -469.3 68.2 -451.8 99.7 -436.8C131.2 -421.7 160.2 -409 190.9 -396.4C221.6 -383.8 254.1 -371.3 279.9 -351C305.8 -330.8 325.1 -302.9 348.7 -278.1C372.3 -253.2 400.3 -231.4 423.5 -203.9C446.6 -176.4 464.8 -143.2 474.5 -108.3C484.3 -73.4 485.5 -36.7 486.7 0L0 0Z" fill="#692161"></path><path d="M0 -324.5C22.7 -312.9 45.4 -301.2 66.5 -291.2C87.5 -281.1 106.8 -272.7 127.3 -264.3C147.8 -255.9 169.4 -247.5 186.6 -234C203.9 -220.5 216.7 -202 232.5 -185.4C248.2 -168.8 266.9 -154.3 282.3 -136C297.7 -117.6 309.9 -95.5 316.4 -72.2C322.9 -48.9 323.7 -24.5 324.5 0L0 0Z" fill="#ca2e77"></path><path d="M0 -162.2C11.4 -156.4 22.7 -150.6 33.2 -145.6C43.7 -140.6 53.4 -136.3 63.6 -132.1C73.9 -127.9 84.7 -123.8 93.3 -117C101.9 -110.3 108.4 -101 116.2 -92.7C124.1 -84.4 133.4 -77.1 141.2 -68C148.9 -58.8 154.9 -47.7 158.2 -36.1C161.4 -24.5 161.8 -12.2 162.2 0L0 0Z" fill="#fa3c76"></path></g></svg>