<svg id="visual" viewBox="0 0 900 600" width="900" height="600" xmlns="http://www.w3.org/2000/svg" xmlns:xlink="http://www.w3.org/1999/xlink" version="1.1"><rect x="0" y="0" width="900" height="600" fill="#a6122d"></rect><defs><linearGradient id="grad1_0" x1="33.3%" y1="100%" x2="100%" y2="0%"><stop offset="20%" stop-color="#fafa3c" stop-opacity="1"></stop><stop offset="80%" stop-color="#fafa3c" stop-opacity="1"></stop></linearGradient></defs><defs><linearGradient id="grad1_1" x1="33.3%" y1="100%" x2="100%" y2="0%"><stop offset="20%" stop-color="#fafa3c" stop-opacity="1"></stop><stop offset="80%" stop-color="#f7ac15" stop-opacity="1"></stop></linearGradient></defs><defs><linearGradient id="grad1_2" x1="33.3%" y1="100%" x2="100%" y2="0%"><stop offset="20%" stop-color="#d96123" stop-opacity="1"></stop><stop offset="80%" stop-color="#f7ac15" stop-opacity="1"></stop></linearGradient></defs><defs><linearGradient id="grad1_3" x1="33.3%" y1="100%" x2="100%" y2="0%"><stop offset="20%" stop-color="#d96123" stop-opacity="1"></stop><stop offset="80%" stop-color="#a6122d" stop-opacity="1"></stop></linearGradient></defs><defs><linearGradient id="grad2_0" x1="0%" y1="100%" x2="66.7%" y2="0%"><stop offset="20%" stop-color="#fafa3c" stop-opacity="1"></stop><stop offset="80%" stop-color="#fafa3c" stop-opacity="1"></stop></linearGradient></defs><defs><linearGradient id="grad2_1" x1="0%" y1="100%" x2="66.7%" y2="0%"><stop offset="20%" stop-color="#f7ac15" stop-opacity="1"></stop><stop offset="80%" stop-color="#fafa3c" stop-opacity="1"></stop></linearGradient></defs><defs><linearGradient id="grad2_2" x1="0%" y1="100%" x2="66.7%" y2="0%"><stop offset="20%" stop-color="#f7ac15" stop-opacity="1"></stop><stop offset="80%" stop-color="#d96123" stop-opacity="1"></stop></linearGradient></defs><defs><linearGradient id="grad2_3" x1="0%" y1="100%" x2="66.7%" y2="0%"><stop offset="20%" stop-color="#a6122d" stop-opacity="1"></stop><stop offset="80%" stop-color="#d96123" stop-opacity="1"></stop></linearGradient></defs><g transform="translate(900, 600)"><path d="M-486.7 0C-481.4 -35.5 -476.1 -71 -469.9 -107.3C-463.7 -143.5 -456.6 -180.4 -438.5 -211.2C-420.5 -242 -391.5 -266.5 -366.7 -292.4C-341.9 -318.3 -321.2 -345.5 -295.5 -370.6C-269.8 -395.7 -239 -418.6 -204.8 -425.3C-170.5 -431.9 -132.8 -422.4 -98.1 -429.9C-63.4 -437.5 -31.7 -462.1 0 -486.7L0 0Z" fill="#c23c2a"></path><path d="M-365.1 0C-361.1 -26.6 -357.1 -53.3 -352.4 -80.4C-347.8 -107.6 -342.4 -135.3 -328.9 -158.4C-315.4 -181.5 -293.6 -199.9 -275 -219.3C-256.4 -238.7 -240.9 -259.1 -221.7 -277.9C-202.4 -296.7 -179.3 -313.9 -153.6 -318.9C-127.9 -324 -99.6 -316.8 -73.6 -322.5C-47.6 -328.1 -23.8 -346.6 0 -365.1L0 0Z" fill="#eb861b"></path><path d="M-243.4 0C-240.7 -17.8 -238.1 -35.5 -235 -53.6C-231.9 -71.7 -228.3 -90.2 -219.3 -105.6C-210.2 -121 -195.7 -133.3 -183.3 -146.2C-170.9 -159.2 -160.6 -172.8 -147.8 -185.3C-134.9 -197.8 -119.5 -209.3 -102.4 -212.6C-85.3 -216 -66.4 -211.2 -49.1 -215C-31.7 -218.7 -15.9 -231.1 0 -243.4L0 0Z" fill="#fcd320"></path><path d="M-121.7 0C-120.4 -8.9 -119 -17.8 -117.5 -26.8C-115.9 -35.9 -114.1 -45.1 -109.6 -52.8C-105.1 -60.5 -97.9 -66.6 -91.7 -73.1C-85.5 -79.6 -80.3 -86.4 -73.9 -92.6C-67.5 -98.9 -59.8 -104.6 -51.2 -106.3C-42.6 -108 -33.2 -105.6 -24.5 -107.5C-15.9 -109.4 -7.9 -115.5 0 -121.7L0 0Z" fill="#fafa3c"></path></g><g transform="translate(0, 0)"><path d="M486.7 0C471.7 33 456.7 66.1 452.4 103.2C448 140.4 454.3 181.8 436.1 210C417.8 238.2 375.1 253.2 347.1 276.8C319.2 300.4 305.9 332.5 283.1 355C260.2 377.4 227.7 390 197.9 410.8C168 431.6 140.8 460.5 108.3 474.5C75.8 488.5 37.9 487.6 0 486.7L0 0Z" fill="#c23c2a"></path><path d="M365.1 0C353.8 24.8 342.5 49.5 339.3 77.4C336 105.3 340.7 136.3 327.1 157.5C313.4 178.6 281.3 189.9 260.3 207.6C239.4 225.3 229.4 249.4 212.3 266.2C195.1 283 170.8 292.5 148.4 308.1C126 323.7 105.6 345.4 81.2 355.9C56.8 366.4 28.4 365.7 0 365.1L0 0Z" fill="#eb861b"></path><path d="M243.4 0C235.9 16.5 228.4 33 226.2 51.6C224 70.2 227.1 90.9 218 105C208.9 119.1 187.6 126.6 173.6 138.4C159.6 150.2 153 166.3 141.5 177.5C130.1 188.7 113.8 195 98.9 205.4C84 215.8 70.4 230.3 54.2 237.3C37.9 244.3 18.9 243.8 0 243.4L0 0Z" fill="#fcd320"></path><path d="M121.7 0C117.9 8.3 114.2 16.5 113.1 25.8C112 35.1 113.6 45.4 109 52.5C104.5 59.5 93.8 63.3 86.8 69.2C79.8 75.1 76.5 83.1 70.8 88.7C65 94.3 56.9 97.5 49.5 102.7C42 107.9 35.2 115.1 27.1 118.6C18.9 122.1 9.5 121.9 0 121.7L0 0Z" fill="#fafa3c"></path></g></svg>